<?xml version="1.0" encoding="UTF-8" standalone="no"?>
<!DOCTYPE svg PUBLIC "-//W3C//DTD SVG 1.1//EN" "http://www.w3.org/Graphics/SVG/1.1/DTD/svg11.dtd">
<svg width="100%" height="100%" viewBox="0 0 128 128" version="1.1" xmlns="http://www.w3.org/2000/svg" xmlns:xlink="http://www.w3.org/1999/xlink" xml:space="preserve" xmlns:serif="http://www.serif.com/" style="fill-rule:evenodd;clip-rule:evenodd;stroke-linejoin:round;stroke-miterlimit:2;">
    <g transform="matrix(0.0653846,0,0,-0.0653846,22.1538,105.519)">
        <path d="M120,1130L120,140L283,140C545,141 621,160 710,250C778,317 804,378 808,477C813,577 796,634 740,708C709,748 702,765 709,778C747,850 724,975 659,1045C586,1124 564,1130 327,1130L120,1130ZM488,876C493,849 473,840 408,840C350,840 350,840 350,870L350,901L417,898C474,895 485,892 488,876ZM520,595C554,578 580,533 580,495C580,457 554,412 520,395C502,386 464,380 420,380L350,380L350,610L420,610C464,610 502,604 520,595Z" style="fill:url(#_Linear1);fill-rule:nonzero;"/>
        <path d="M1061,945C1008,928 922,871 894,833C849,771 847,764 875,710C906,649 930,559 930,506L930,466L990,525C1035,570 1050,591 1050,613C1050,667 1080,704 1143,724C1158,729 1160,744 1160,845L1160,960L1133,959C1117,959 1085,952 1061,945Z" style="fill:url(#_Linear2);fill-rule:nonzero;"/>
    </g>
    <defs>
        <linearGradient id="_Linear1" x1="0" y1="0" x2="1" y2="0" gradientUnits="userSpaceOnUse" gradientTransform="matrix(1040,0,0,990,120,635)"><stop offset="0" style="stop-color:rgb(226,226,226);stop-opacity:1"/><stop offset="1" style="stop-color:rgb(189,189,189);stop-opacity:1"/></linearGradient>
        <linearGradient id="_Linear2" x1="0" y1="0" x2="1" y2="0" gradientUnits="userSpaceOnUse" gradientTransform="matrix(1040,0,0,990,120,635)"><stop offset="0" style="stop-color:rgb(226,226,226);stop-opacity:1"/><stop offset="1" style="stop-color:rgb(189,189,189);stop-opacity:1"/></linearGradient>
    </defs>
</svg>
